<svg xmlns="http://www.w3.org/2000/svg" viewBox="0 0 24 24"><path d="M23.8 17.9c0 3.3-2.7 5.9-5.9 5.9H6.1c-3.3 0-5.9-2.7-5.9-5.9V6.1C.2 2.8 2.9.2 6.1.2h11.8c3.3 0 5.9 2.7 5.9 5.9v11.8z" fill="#0074b5"/><path d="M4.7 9.6h3.4v9.8H4.7zm1.6-1.5c.9 0 1.7-.8 1.7-1.7s-.7-1.8-1.7-1.8-1.7.8-1.7 1.7.8 1.8 1.7 1.8m13 5.9c0-2.6-.5-4.4-3.6-4.4-1.5 0-2.5.6-2.9 1.3h-.1V9.6h-2.6v9.8h2.8v-4.8c0-1.3.3-2.5 1.9-2.5 1.6 0 1.7 1.5 1.7 2.6v4.7h2.8V14z" fill="#fff"/><path d="M17.9 24H6.1C2.7 24 0 21.3 0 17.9V6.1C0 2.7 2.7 0 6.1 0h11.8C21.3 0 24 2.7 24 6.1v11.8c0 3.4-2.7 6.1-6.1 6.1zM6.1.4C2.9.4.4 3 .4 6.1v11.8c0 3.2 2.6 5.7 5.7 5.7h11.8c3.2 0 5.7-2.6 5.7-5.7V6.1c0-3.2-2.6-5.7-5.7-5.7H6.1z"/><path d="M17.5 22.9h-11c-2.9 0-5.4-2.5-5.4-5.4v-11c0-2.9 2.5-5.4 5.4-5.4h10.9c.1 0 .2.1.2.2s-.1.2-.2.2H6.5c-2.7 0-5 2.3-5 5v11c0 2.7 2.3 5 5 5h11c2.7 0 5-2.3 5-5v-5.3c0-.1.1-.2.2-.2s.2.1.2.2v5.3c0 2.9-2.5 5.4-5.4 5.4z"/><path d="M21.1 3.1c-.1 0-.1 0-.1-.1-1-1-2.2-1.5-3.6-1.5-.1 0-.2-.1-.2-.2s.1-.2.2-.2c1.4 0 2.8.6 3.8 1.6.1.1.1.2 0 .3 0 .1 0 .1-.1.1zm1.6 8c-.1 0-.2-.1-.2-.2V8.1c0-.1.1-.2.2-.2s.2.1.2.2v2.8c0 .1-.1.2-.2.2zm-3.4 8.4h-2.8c-.1 0-.2-.1-.2-.2v-4.7c0-1.3-.2-2.4-1.5-2.4-1.2 0-1.7.7-1.7 2.3v4.8c0 .1-.1.2-.2.2h-2.8c-.1 0-.2-.1-.2-.2V9.6c0-.1.1-.2.2-.2h2.6c.1 0 .2.1.2.2v.8c.6-.6 1.5-1 2.7-1 .1 0 .2.1.2.2s-.1.2-.2.2c-1.3 0-2.3.4-2.7 1.2 0 .1-.1.1-.2.1h-.1c-.1 0-.2-.1-.2-.2V9.8h-2.2v9.4h2.4v-4.6c0-1.2.2-2.7 2-2.7 1.9 0 1.9 2 1.9 2.8v4.5h2.4v-5c0-.1.1-.2.2-.2s.2.1.2.2v5.3c.2-.1.1 0 0 0zm-11.2 0H4.7c-.1 0-.2-.1-.2-.2V9.6c0-.1.1-.2.2-.2h3.4c.1 0 .2.1.2.2v9.8s-.1.1-.2.1zm-3.2-.4h3V9.8h-3v9.3zM6.3 8.3c-1.1 0-1.9-.9-1.9-1.9s.9-1.9 1.9-1.9c.1 0 .2.1.2.2s-.1.2-.2.2c-.9 0-1.5.7-1.5 1.5s.7 1.5 1.5 1.5 1.5-.7 1.5-1.5c0-.1.1-.2.2-.2s.2.1.2.2c.1 1-.8 1.9-1.9 1.9z"/></svg>