<svg xmlns="http://www.w3.org/2000/svg" viewBox="0 0 24 24"><path d="M23.8 17.9c0 3.3-2.7 5.9-5.9 5.9H6.1c-3.3 0-5.9-2.7-5.9-5.9V6.1C.2 2.8 2.9.2 6.1.2h11.8c3.3 0 5.9 2.7 5.9 5.9v11.8z" fill="#235b9e"/><path d="M10.1 19.3h2.8V12h2.2l.3-3h-2.3V7.9c0-.6.4-.8.6-.8h1.6V4.6H13c-2.5 0-3.1 1.9-3.1 3.1V9H8.6v3h1.5v7.3z" fill="#fff"/><path d="M12.9 19.5h-2.8c-.1 0-.2-.1-.2-.2v-7.1H8.6c-.1 0-.2-.1-.2-.2V9c0-.1.1-.2.2-.2h1.1V7.7c0-1.6.9-3.3 3.3-3.3h2.3c.1 0 .2.1.2.2v2.5c0 .1-.1.2-.2.2h-1.6c-.1 0-.4 0-.4.6v.9h2.1c.1 0 .1 0 .1.1 0 0 .1.1.1.2l-.3 3c0 .1-.1.2-.2.2h-2v2.2c0 .1-.1.2-.2.2s-.2-.1-.2-.2V12c0-.1.1-.2.2-.2H15l.2-2.6h-2.1c-.1 0-.2-.1-.2-.2V7.9c0-.6.4-.9.8-.9h1.4V4.8H13c-.5 0-2.9.1-2.9 2.9V9c0 .1-.1.2-.2.2H8.8v2.6h1.3c.1 0 .2.1.2.2v7.1h2.4v-1.5c0-.1.1-.2.2-.2s.2.1.2.2v1.7c0 .1-.1.2-.2.2z"/><path d="M17.9 24H6.1C2.7 24 0 21.3 0 17.9V6.1C0 2.7 2.7 0 6.1 0h11.8C21.3 0 24 2.7 24 6.1v11.8c0 3.4-2.7 6.1-6.1 6.1zM6.1.4C2.9.4.4 3 .4 6.1v11.8c0 3.2 2.6 5.7 5.7 5.7h11.8c3.2 0 5.7-2.6 5.7-5.7V6.1c0-3.2-2.6-5.7-5.7-5.7H6.1z"/><path d="M17.5 22.9h-11c-2.9 0-5.4-2.5-5.4-5.4v-11c0-2.9 2.5-5.4 5.4-5.4h10.9c.1 0 .2.1.2.2s-.1.2-.2.2H6.5c-2.7 0-5 2.3-5 5v11c0 2.7 2.3 5 5 5h11c2.7 0 5-2.3 5-5v-5.3c0-.1.1-.2.2-.2s.2.1.2.2v5.3c0 2.9-2.5 5.4-5.4 5.4z"/><path d="M21.1 3.1c-.1 0-.1 0-.1-.1-1-1-2.2-1.5-3.6-1.5-.1 0-.2-.1-.2-.2s.1-.2.2-.2c1.4 0 2.8.6 3.8 1.6.1.1.1.2 0 .3 0 .1 0 .1-.1.1zm1.6 8c-.1 0-.2-.1-.2-.2V8.1c0-.1.1-.2.2-.2s.2.1.2.2v2.8c0 .1-.1.2-.2.2z"/></svg>