<svg xmlns="http://www.w3.org/2000/svg" viewBox="0 0 24 24"><path d="M23.8 17.9c0 3.3-2.7 5.9-5.9 5.9H6.1c-3.3 0-5.9-2.7-5.9-5.9V6.1C.2 2.8 2.9.2 6.1.2h11.8c3.3 0 5.9 2.7 5.9 5.9v11.8z" fill="#2d80a6"/><path d="M16.5 4.7h-9c-1.6 0-2.8 1.2-2.8 2.8v9c0 1.6 1.2 2.8 2.8 2.8h9c1.6 0 2.8-1.2 2.8-2.8v-9c0-1.6-1.2-2.8-2.8-2.8m.8 1.6h.3v2.5h-2.5V6.3h2.2zm-7.4 4.2c.5-.7 1.2-1.1 2.1-1.1s1.6.4 2.1 1.1c.3.4.5.9.5 1.5 0 1.4-1.2 2.6-2.6 2.6-1.4 0-2.6-1.2-2.6-2.6 0-.6.2-1.1.5-1.5m8.1 6c0 .8-.7 1.5-1.5 1.5h-9c-.8 0-1.5-.7-1.5-1.5v-6h2.3c-.2.4-.3 1-.3 1.5 0 2.2 1.8 4 4 4s4-1.8 4-4c0-.5-.1-1.1-.3-1.5H18v6z" fill="#fff"/><path d="M17.9 24H6.1C2.7 24 0 21.3 0 17.9V6.1C0 2.7 2.7 0 6.1 0h11.8C21.3 0 24 2.7 24 6.1v11.8c0 3.4-2.7 6.1-6.1 6.1zM6.1.4C2.9.4.4 3 .4 6.1v11.8c0 3.2 2.6 5.7 5.7 5.7h11.8c3.2 0 5.7-2.6 5.7-5.7V6.1c0-3.2-2.6-5.7-5.7-5.7H6.1z"/><path d="M17.5 22.9h-11c-2.9 0-5.4-2.5-5.4-5.4v-11c0-2.9 2.5-5.4 5.4-5.4h10.9c.1 0 .2.1.2.2s-.1.2-.2.2H6.5c-2.7 0-5 2.3-5 5v11c0 2.7 2.3 5 5 5h11c2.7 0 5-2.3 5-5v-5.3c0-.1.1-.2.2-.2s.2.1.2.2v5.3c0 2.9-2.5 5.4-5.4 5.4z"/><path d="M21.1 3.1c-.1 0-.1 0-.1-.1-.9-.9-2.3-1.5-3.6-1.5-.1 0-.2-.1-.2-.2s.1-.2.2-.2c1.4 0 2.9.6 3.9 1.6.1.1.1.2 0 .3-.1.1-.1.1-.2.1zM22.7 11.1c-.1 0-.2-.1-.2-.2V8.1c0-.1.1-.2.2-.2s.2.1.2.2v2.8c0 .1-.1.2-.2.2zM12 14.8c-1.5 0-2.8-1.2-2.8-2.8 0-.6.2-1.2.5-1.6.5-.7 1.4-1.2 2.2-1.2.9 0 1.7.4 2.2 1.2.3.5.5 1 .5 1.6.2 1.5-1.1 2.8-2.6 2.8zm0-5.2c-.8 0-1.5.4-1.9 1-.3.4-.5.9-.5 1.4 0 1.3 1.1 2.4 2.4 2.4s2.4-1.1 2.4-2.4c0-.5-.2-1-.5-1.4-.4-.6-1.1-1-1.9-1z"/><path d="M16.5 18.2h-9c-.9 0-1.7-.8-1.7-1.7v-6c0-.1.1-.2.2-.2h2.3c.1 0 .1 0 .2.1v.2c-.2.3-.3.9-.3 1.4 0 2.1 1.7 3.8 3.8 3.8s3.8-1.7 3.8-3.8c0-.5-.1-1.1-.3-1.4v-.2c0-.1.1-.1.2-.1H18c.1 0 .2.1.2.2v6c0 .9-.8 1.7-1.7 1.7zM6.2 10.7v5.8c0 .7.6 1.3 1.3 1.3h9c.7 0 1.3-.6 1.3-1.3v-5.8H16c.1.4.2.9.2 1.3 0 2.3-1.9 4.2-4.2 4.2S7.8 14.3 7.8 12c0-.5.1-.9.2-1.3H6.2zM15.2 9H15l-.1-.1V6.3c0-.1.1-.2.2-.2h2.5c.1 0 .1 0 .1.1l.1.1v2.5c0 .1-.1.2-.2.2h-2.4zm.1-2.5v2.1h2.1V6.5h-2.1z"/><path d="M16.5 19.5h-9c-1.7 0-3-1.3-3-3v-9c0-1.7 1.3-3 3-3h9c1.7 0 3 1.3 3 3 0 .1-.1.2-.2.2s-.2-.1-.2-.2c0-1.5-1.2-2.6-2.6-2.6h-9C6 4.9 4.9 6 4.9 7.5v9.1c0 1.5 1.1 2.6 2.6 2.6h9c1.5 0 2.6-1.1 2.6-2.6V12c0-.1.1-.2.2-.2s.2.1.2.2v4.5c0 1.7-1.3 3-3 3z"/></svg>