<svg xmlns="http://www.w3.org/2000/svg" viewBox="0 0 24 24"><path d="M23.8 17.9c0 3.3-2.7 5.9-5.9 5.9H6.1c-3.3 0-5.9-2.7-5.9-5.9V6.1C.2 2.8 2.8.2 6.1.2h11.8c3.3 0 5.9 2.7 5.9 5.9v11.8z" fill="#00abe3"/><path d="M19 6.3c-.6.4-1.3.6-2 .7-.5-.6-1.3-.9-2.2-.9-1.7 0-3 1.3-3 3 0 .2 0 .5.1.7-2.5-.2-4.8-1.3-6.3-3.1-.2.4-.4.9-.4 1.4 0 1 .5 1.9 1.4 2.5-.5 0-1-.2-1.3-.4 0 1.4 1 2.6 2.4 2.9-.2.1-.5.1-.8.1-.2 0-.4 0-.6-.1.4 1.2 1.5 2 2.8 2.1-1 .8-2.3 1.3-3.8 1.3h-.7c1.3.9 2.9 1.3 4.6 1.3 5.6 0 8.6-4.5 8.6-8.5v-.4c.6-.4 1.1-.9 1.5-1.5-.5.2-1.1.4-1.7.5.7-.3 1.1-.9 1.4-1.6" fill="#fff"/><path d="M17.9 24H6.1C2.7 24 0 21.3 0 17.9V6.1C0 2.7 2.7 0 6.1 0h11.8C21.3 0 24 2.7 24 6.1v11.8c0 3.4-2.7 6.1-6.1 6.1zM6.1.4C2.9.4.4 3 .4 6.1v11.8c0 3.2 2.6 5.7 5.7 5.7h11.8c3.2 0 5.7-2.6 5.7-5.7V6.1c0-3.2-2.6-5.7-5.7-5.7H6.1z"/><path d="M17.5 22.9h-11c-2.9 0-5.4-2.5-5.4-5.4v-11c0-2.9 2.5-5.4 5.4-5.4h10.9c.1 0 .2.1.2.2s-.1.2-.2.2H6.5c-2.7 0-5 2.3-5 5v11c0 2.7 2.3 5 5 5h11c2.7 0 5-2.3 5-5v-5.3c0-.1.1-.2.2-.2s.2.1.2.2v5.3c0 2.9-2.5 5.4-5.4 5.4z"/><path d="M21.1 3.1c-.1 0-.1 0-.1-.1-1-1-2.2-1.5-3.6-1.5-.1 0-.2-.1-.2-.2s.1-.2.2-.2c1.4 0 2.8.6 3.8 1.6.1.1.1.2 0 .3 0 .1 0 .1-.1.1zM22.7 11.1c-.1 0-.2-.1-.2-.2V8.1c0-.1.1-.2.2-.2s.2.1.2.2v2.8c0 .1-.1.2-.2.2zM17.8 9.6c-.1 0-.2-.1-.2-.2V9c0-.1 0-.1.1-.2.4-.3.8-.6 1.1-1-.4.2-.8.3-1.2.3-.1 0-.2 0-.2-.1s0-.2.1-.2c.6-.3 1-.9 1.2-1.5 0-.1.1-.2.2-.1.1 0 .2.1.1.2-.2.5-.4.9-.8 1.3l.9-.3c.1 0 .2 0 .2.1.1.1.1.2 0 .2-.4.6-.9 1.1-1.5 1.5v.3c.2 0 .1.1 0 .1z"/><path d="M9.2 18.1c-1.7 0-3.3-.5-4.7-1.4-.1 0-.1-.1-.1-.2s.1-.1.2-.1c1.4.2 2.8-.2 3.9-.9-1.2-.2-2.1-1-2.5-2.2v-.2c0-.1.1-.1.2-.1.2 0 .4.1.5.1-1-.5-1.7-1.6-1.7-2.8 0-.1 0-.1.1-.2h.2c.2.1.4.2.6.2-.6-.6-.9-1.4-.9-2.2 0-.5.1-1.1.4-1.6 0-.1.1-.1.2-.1s.1 0 .2.1c1.5 1.8 3.6 2.9 5.9 3V9c0-1.7 1.4-3.2 3.2-3.2.9 0 1.7.3 2.3.9.6-.1 1.2-.4 1.8-.7.1-.1.2 0 .3.1.1.1 0 .2-.1.3-.6.4-1.3.6-2 .7-.1 0-.1 0-.2-.1-.5-.6-1.3-.9-2.1-.9-1.6 0-2.8 1.2-2.8 2.8 0 .2 0 .4.1.6v.2c0 .1-.1.1-.2.1-2.6 0-4.8-1-6.4-2.8-.2.4-.3.7-.3 1.2 0 .9.5 1.8 1.3 2.3.1 0 .1.1.1.2s-.1.1-.2.1c-.4 0-.8-.1-1.1-.2.1 1.2 1 2.2 2.2 2.5.1 0 .2.1.2.2s-.1.2-.1.2c-.4.1-.8.1-1.2.1.5 1 1.4 1.6 2.5 1.6.1 0 .2.1.2.1s0 .2-.1.2c-1.1.9-2.4 1.3-3.8 1.3 1.2.6 2.5.9 3.9.9 2.9 0 5.3-1.3 6.9-3.6.1-.1.2-.1.3-.1.1.1.1.2.1.3-1.7 2.5-4.2 3.8-7.3 3.8z"/></svg>