<svg xmlns="http://www.w3.org/2000/svg" viewBox="0 0 24 24"><path d="M23.8 17.9c0 3.3-2.7 5.9-5.9 5.9H6.1c-3.3 0-5.9-2.7-5.9-5.9V6.1C.2 2.8 2.9.2 6.1.2h11.8c3.3 0 5.9 2.7 5.9 5.9v11.8z" fill="#f5e200"/><path d="M11.9 5.3c-.9 0-1.8.3-2.5.8-.5.4-1 1-1.2 1.6-.3.6-.2 1.3-.2 2 .1.5 0 .9 0 1.3v.1h-.6c-.2 0-.3-.1-.5-.2-.2 0-.3 0-.5.1-.1.1-.2.2-.3.4 0 .1.1.2.2.3.1.1.1.1.2.1.3.2.7.4 1 .4.2.2.4.3.4.5.1.2 0 .5-.2.8-.4.7-.9 1.3-1.5 1.7-.3.2-.7.4-1.1.5-.1 0-.3.1-.4.2 0 .1 0 .2.1.3.1.1.1.1.2.1.3.2.7.3 1 .4.2.1.5.1.6.2 0 0 0 .1.1.2.1.2.1.4.2.6 0 .1.1.1.1.1h.2c.6-.1 1.1-.2 1.6-.1s1 .5 1.5.8c.4.2.8.4 1.3.5h1c.3-.2.6-.2.8-.3.5-.3 1-.7 1.6-.9.2-.1.4-.1.6-.1.5 0 .9 0 1.3.1.1 0 .1 0 .2-.1v-.1s0-.1 0 0c.1-.3.1-.5.3-.7.1-.1.2-.1.3-.1.4 0 .7-.2 1.1-.3.1-.1.3-.1.4-.3.1-.2.1-.3-.1-.4H19c-.2-.1-.3-.1-.4-.2-.8-.2-1.4-.8-1.9-1.4-.3-.4-.5-.7-.7-1.2-.1-.2-.1-.4 0-.5.1-.2.4-.3.7-.4.3-.1.6-.2.9-.5 0 0 .1-.1.1-.2s.2-.2 0-.3c0-.2-.1-.3-.2-.3H17c-.2.1-.3.1-.5.1s-.4 0-.5-.1v-.1c0-.4-.1-.6-.1-1 0-.5.1-1.1 0-1.6-.2-.9-.8-1.8-1.5-2.3-.5-.4-1.2-.5-1.9-.7-.1.2-.3.2-.6.2z" fill="#fff"/><path d="M17.9 24H6.1C2.7 24 0 21.3 0 17.9V6.1C0 2.7 2.7 0 6.1 0h11.8C21.3 0 24 2.7 24 6.1v11.8c0 3.4-2.7 6.1-6.1 6.1zM6.1.4C2.9.4.4 3 .4 6.1v11.8c0 3.2 2.6 5.7 5.7 5.7h11.8c3.2 0 5.7-2.6 5.7-5.7V6.1c0-3.2-2.6-5.7-5.7-5.7H6.1z"/><path d="M17.5 22.9h-11c-2.9 0-5.4-2.5-5.4-5.4v-11c0-2.9 2.5-5.4 5.4-5.4h10.9c.1 0 .2.1.2.2s-.1.2-.2.2H6.5c-2.7 0-5 2.3-5 5v11c0 2.7 2.3 5 5 5h11c2.7 0 5-2.3 5-5v-5.3c0-.1.1-.2.2-.2s.2.1.2.2v5.3c0 2.9-2.5 5.4-5.4 5.4z"/><path d="M21.1 3.1c-.1 0-.1 0-.1-.1-.9-.9-2.4-1.5-3.7-1.5-.1 0-.2-.1-.2-.2s.1-.2.2-.2c1.4 0 2.9.6 3.9 1.6.1.1.1.2 0 .3 0 .1 0 .1-.1.1zM22.7 11.1c-.1 0-.2-.1-.2-.2V8.1c0-.1.1-.2.2-.2s.2.1.2.2v2.8c0 .1-.1.2-.2.2zM12.1 19.4H12h-.1c-1 0-1.6-.5-2.2-.8-.4-.2-.6-.5-1-.5h-.5c-.3 0-.5 0-.7.1-.1 0-.2.1-.4.1-.3 0-.5-.2-.6-.4 0-.1-.1-.2-.1-.3v-.2c-.6-.1-1.1-.2-1.4-.4-.3-.1-.5-.3-.6-.5v-.2c0-.3.2-.5.5-.5.4-.4.8-.5 1.1-.8.3-.2.6-.5.9-.8.5-.5.7-1 .7-1.1.1-.2.1-.3.1-.3-.1-.2-.5-.3-.7-.4h-.1c-.1 0-.1 0-.2-.1-.3-.1-.5-.2-.6-.4-.3-.3-.3-.6-.3-.7 0-.2.2-.4.4-.5.3-.2.6-.2.9-.1.2.1.4.2.6.2v-.2c0-1 0-2.3.3-3.1.3-.5.6-1 1-1.3.3-.3.7-.6 1.1-.8.7-.3 1.4-.4 1.8-.4h.2c.3 0 1 .1 1.8.4.4.2.8.5 1.2.8.4.4.7.8 1 1.4.4.8.3 2.1.2 3.1v.2c.2 0 .3-.1.5-.2s.3-.1.4-.1c.1 0 .3 0 .4.1.4.1.6.4.6.7 0 .1 0 .3-.2.5s-.4.3-.7.4c0 0-.1 0-.2.1H17c-.2.1-.6.2-.7.4 0 .1 0 .2.1.4.2.4 1.1 2 2.8 2.3.3 0 .5.3.5.6v.2c-.1.2-.3.4-.6.5-.3.2-.8.3-1.4.4V17.5c0 .1 0 .2-.1.3-.1.3-.3.4-.6.4h-.4c-.2 0-.4-.1-.7-.1h-.5c-.3.1-.6.3-1 .5-.7.3-1.3.8-2.3.8zm-3.9-1.8c.2 0 .4 0 .6.1.4.1.7.3 1.1.6.5.4 1.1.8 2 .8h.1c.9 0 1.4-.4 1.9-.8.4-.3.7-.5 1.1-.6.2 0 .4-.1.6-.1.3 0 .6 0 .8.1h.3c.1 0 .2-.1.2-.2s0-.2.1-.2v-.1c0-.2.1-.3.1-.4 0-.1.1-.1.2-.1.6-.1 1.1-.2 1.4-.4.2-.1.4-.2.4-.3v-.1c0-.1-.1-.2-.1-.2-1.9-.3-2.9-2.2-3.1-2.6-.1-.3-.2-.5-.1-.7.1-.3.6-.5.9-.6h.2c.2-.1.4-.2.5-.3.1-.1.1-.2.1-.3 0-.2-.1-.3-.4-.4-.1 0-.2-.1-.3-.1h-.2c-.2.1-.5.2-.7.2-.1 0-.2 0-.3-.1-.1 0-.1-.1-.1-.2v-.1V10.2c.1-1 .1-2.2-.2-2.9-.2-.5-.5-.9-.9-1.2-.3-.3-.6-.5-1-.7-.7-.3-1.3-.3-1.6-.3h-.3c-.3 0-1 0-1.6.3-.4.2-.7.4-1 .7-.1.6-.4 1.1-.6 1.6-.3.7-.3 1.9-.2 2.9v.3c0 .1 0 .2-.1.2-.3.1-.6.1-1-.1-.1-.1-.4 0-.5.1-.1.1-.2.2-.2.3 0 .1 0 .2.2.3.1.1.3.2.5.3-.1 0 0 0 0 0h.1c.3.1.8.2.9.6.1.2.1.4-.1.6 0 .1-.3.6-.8 1.2-.3.3-.6.6-.9.8-.4.3-.9.4-1.3.5-.1 0-.1.1-.1.2v.1c.1.1.2.2.4.3.3.2.8.3 1.4.4.1 0 .1 0 .1.1s.1.2.1.4v.1c0 .1 0 .2.1.3s.1.2.2.2h.3c.2-.1.5-.2.8-.2z"/></svg>