<?xml version="1.0" standalone="no"?>
<!DOCTYPE svg PUBLIC "-//W3C//DTD SVG 20010904//EN"
 "http://www.w3.org/TR/2001/REC-SVG-20010904/DTD/svg10.dtd">
<svg version="1.0" xmlns="http://www.w3.org/2000/svg"
 width="260.000000pt" height="260.000000pt" viewBox="0 0 260.000000 260.000000"
 preserveAspectRatio="xMidYMid meet">
<metadata>
Created by potrace 1.11, written by Peter Selinger 2001-2013
</metadata>
<g transform="translate(0.000000,260.000000) scale(0.100000,-0.100000)"
fill="#000000" stroke="none">
<path d="M1181 1746 c-43 -44 -43 -44 -26 -72 16 -29 12 -24 -29 31 -15 19
-17 18 -76 -41 l-61 -60 23 -30 c12 -16 16 -24 7 -17 -13 10 -31 -4 -116 -90
l-100 -102 32 -52 32 -52 106 108 c121 122 110 121 156 11 25 -58 29 -73 30
-107 1 -21 3 -20 35 12 52 52 66 76 66 116 0 43 -31 137 -62 188 -13 21 -16
31 -7 24 13 -10 24 -3 68 41 l53 54 -28 32 c-48 53 -56 54 -103 6z m-126 -232
c9 -15 12 -23 6 -20 -11 7 -35 46 -28 46 3 0 12 -12 22 -26z"/>
<path d="M715 1748 c-29 -15 -45 -38 -46 -67 -1 -26 -1 -26 -8 -3 -6 24 -6 24
-37 -11 -41 -45 -51 -66 -48 -102 2 -19 0 -25 -5 -16 -12 19 -68 5 -82 -21 -6
-11 -9 -21 -7 -22 7 -5 103 -24 106 -21 2 2 -1 13 -8 24 -7 14 -7 21 0 21 5 0
10 -6 10 -13 0 -17 74 -162 90 -177 3 -3 28 -36 56 -75 63 -87 122 -207 128
-259 6 -50 10 -52 35 -20 56 71 20 190 -120 399 -58 87 -82 135 -103 204 -9
30 -16 56 -16 58 0 14 56 -5 137 -47 l97 -51 53 53 c29 29 53 55 53 59 0 9
-54 40 -117 67 -61 26 -139 35 -168 20z"/>
<path d="M440 1483 c-17 -22 -21 -37 -17 -69 5 -45 38 -125 81 -193 25 -39 29
-42 43 -29 13 14 10 26 -31 110 -36 73 -47 107 -49 151 -1 31 -3 57 -4 57 -1
0 -11 -12 -23 -27z"/>
<path d="M720 1504 c0 -12 71 -124 79 -124 15 0 53 49 46 59 -7 12 -105 71
-117 71 -5 0 -8 -3 -8 -6z"/>
<path d="M936 1321 l-37 -38 23 -15 c83 -52 176 -72 208 -43 11 10 20 30 20
45 0 24 -5 29 -37 35 -29 5 -83 26 -134 51 -3 2 -22 -14 -43 -35z"/>
<path d="M506 1071 l-208 -208 47 -34 c26 -19 49 -34 51 -34 8 0 384 380 384
388 0 7 -32 55 -60 89 -3 4 -99 -86 -214 -201z"/>
<path d="M1620 1212 c-24 -3 -31 -16 -75 -144 -28 -78 -50 -147 -50 -152 0 -6
11 -11 25 -11 19 0 29 9 42 35 16 31 22 34 64 35 45 2 47 1 61 -34 13 -34 17
-36 48 -33 l33 4 -45 126 c-25 70 -48 137 -50 149 -6 25 -17 30 -53 25z m23
-137 c9 -25 13 -45 9 -46 -42 -5 -52 -4 -52 3 0 9 24 88 26 88 1 0 9 -20 17
-45z"/>
<path d="M2144 1212 c-13 -2 -24 -12 -27 -25 -2 -12 -25 -79 -50 -149 l-45
-126 31 -5 c27 -3 31 0 44 32 14 35 17 37 56 35 56 -2 53 0 67 -33 9 -22 19
-30 46 -33 19 -2 34 -1 34 2 0 3 -19 57 -41 120 -23 63 -46 129 -52 147 -10
32 -26 41 -63 35z m33 -139 c11 -35 5 -53 -17 -53 -23 0 -29 18 -18 53 6 20
14 37 17 37 3 0 11 -17 18 -37z"/>
<path d="M1256 1072 c-27 -75 -51 -142 -53 -148 -2 -7 9 -14 26 -16 28 -4 32
-1 43 29 7 18 17 34 23 34 75 9 87 6 101 -31 13 -33 18 -36 48 -32 l33 4 -40
111 c-22 62 -45 129 -50 150 -10 34 -14 37 -47 37 l-35 0 -49 -138z m97 4 c17
-49 9 -60 -32 -49 -19 5 -19 7 -6 34 8 15 15 35 15 44 0 26 8 17 23 -29z"/>
<path d="M1805 1061 l-1 -151 33 0 c35 0 37 3 33 68 -1 17 2 32 7 33 4 1 24 2
44 3 20 1 50 8 66 15 55 23 70 100 29 148 -23 26 -30 28 -118 31 l-93 4 0
-151z m153 84 c15 -6 16 -47 0 -63 -7 -7 -29 -12 -50 -12 -37 0 -38 1 -38 38
0 21 3 41 6 44 5 6 57 1 82 -7z"/>
<path d="M461 1116 c-17 -20 23 -54 44 -36 17 14 13 25 -15 40 -13 7 -21 6
-29 -4z"/>
<path d="M622 1008 c-19 -19 -15 -24 51 -53 81 -37 147 -44 172 -19 18 18 17
19 -35 27 -30 4 -79 19 -108 32 -63 29 -64 29 -80 13z"/>
<path d="M459 837 c-12 -34 4 -59 24 -37 10 10 8 12 -8 6 -19 -6 -19 -5 -2 8
15 12 16 14 2 20 -8 3 -15 4 -16 3z"/>
</g>
</svg>
