<svg xmlns="http://www.w3.org/2000/svg" viewBox="0 0 24 24"><ellipse cx="17.1" cy="19.3" rx=".8" ry=".8"/><path d="M8.2 16.3c-.4-.4-.8-.6-1.3-.6s-.9.2-1.3.6c.7-.1 1.6-.2 2.6 0z"/><path d="M24 22c-.6-4.1-3-7.5-6.2-9.4.2 1.1.3 3.1-.1 4.8.7.3 1.3 1 1.3 1.8 0 1.1-.8 1.9-1.8 1.9s-1.8-.9-1.8-1.9c0-.9.6-1.7 1.4-1.9.5-2 .1-4.6 0-5.3-.1-.1-.3-.1-.4-.2-1.1 1.1-2.6 1.8-4.2 1.8s-3.1-.7-4.2-1.8c-.2.4-.5 1.3-.4 2.7 1.4.5 2.6 2.5 2.6 4.9 0 .9-.2 1.8-.5 2.5-.2.6-.9.8-1.3.8-.5 0-.9-.4-.9-1s.4-1 .9-1c.2 0 .4 0 .6.1.4-1.1.1-2.7-.1-3.2-1.8-.8-3.5-.3-4.1 0-.2.5-.5 1.9-.1 3.2.2-.1.4-.1.6-.1.5 0 .9.4.9 1s-.4 1-.9 1c-.3 0-1-.2-1.2-.7-.3-.8-.5-1.6-.5-2.6 0-2.4 1.2-4.3 2.8-4.7 0-.9.1-1.7.2-2.2C3.1 14.3.6 17.9 0 22c-.2 1 .6 2 1.6 2h20.8c1 0 1.7-.9 1.6-2z"/><path d="M12 13c2.9 0 5.2-2.5 5.2-5.5 0-.4 0-.8-.1-1.2 0 0-2.4-.8-5-.8s-5 .8-5 .8c-.2.3-.3.7-.3 1.2 0 3 2.3 5.5 5.2 5.5zm4.6-7.9c.4-1.4.7-2.9 1-4.3-3.7-1-7.6-1-11.4 0 .3 1.4.7 2.9 1 4.3 3.2-.9 6.4-.9 9.4 0zm-6-3.3h1v-1h.8v1h1v.9h-1v1h-.8v-1h-1v-.9z"/></svg>